<?xml version="1.0" standalone="no"?>
<!DOCTYPE svg PUBLIC "-//W3C//DTD SVG 20010904//EN"
 "http://www.w3.org/TR/2001/REC-SVG-20010904/DTD/svg10.dtd">
<svg version="1.0" xmlns="http://www.w3.org/2000/svg"
 width="225.000000pt" height="225.000000pt" viewBox="0 0 225.000000 225.000000"
 preserveAspectRatio="xMidYMid meet">

<g transform="translate(0.000000,225.000000) scale(0.100000,-0.100000)"
fill="#000000" stroke="none">
<path d="M994 1848 c-25 -31 -106 -187 -167 -325 -20 -45 -34 -64 -50 -67 -12
-3 -59 -12 -104 -21 -80 -15 -270 -76 -366 -117 -40 -18 -47 -24 -41 -42 4
-11 9 -22 13 -24 72 -31 357 -239 368 -269 3 -8 -23 -118 -57 -246 -35 -128
-65 -258 -68 -289 l-4 -58 35 0 c52 0 93 18 327 144 119 64 227 116 241 116
34 0 98 -34 295 -156 179 -112 203 -124 244 -124 60 0 55 47 -44 415 l-64 240
31 33 c18 19 97 84 177 146 80 62 164 132 188 155 41 40 43 44 27 61 -18 20
-3 18 -380 46 -121 9 -229 20 -240 24 -11 5 -57 69 -105 150 -47 79 -105 165
-130 192 -56 59 -86 63 -126 16z m154 -182 c48 -73 99 -153 113 -178 31 -52 1
-46 359 -73 118 -9 228 -20 243 -23 27 -7 26 -8 -50 -66 -148 -113 -333 -268
-333 -280 0 -6 11 -56 24 -111 13 -55 22 -101 21 -103 -1 -2 -29 9 -61 23 -45
20 -59 23 -66 13 -13 -21 -6 -28 67 -66 53 -28 71 -44 76 -64 4 -16 5 -28 2
-28 -3 0 -45 22 -94 50 -81 46 -126 56 -116 27 2 -6 52 -38 111 -72 70 -39
113 -71 123 -88 7 -15 11 -27 8 -27 -2 0 -64 34 -137 75 -73 41 -135 75 -139
75 -4 0 -12 -6 -18 -14 -14 -17 -19 -14 162 -120 119 -70 150 -93 161 -119 7
-18 12 -34 10 -36 -2 -2 -95 48 -206 111 -249 142 -261 148 -290 148 -27 0
-263 -113 -410 -196 -54 -31 -101 -54 -104 -51 -3 3 22 117 55 255 34 137 61
261 61 275 0 37 -62 92 -215 194 l-130 86 45 19 c59 25 265 85 343 99 l63 12
84 161 c101 195 128 239 141 231 5 -4 49 -66 97 -139z"/>
<path d="M995 1617 c-43 -78 -48 -111 -19 -115 18 -3 27 9 53 72 35 85 36 92
16 100 -10 3 -25 -14 -50 -57z"/>
</g>
</svg>
