<?xml version="1.0" standalone="no"?>
<!DOCTYPE svg PUBLIC "-//W3C//DTD SVG 20010904//EN"
 "http://www.w3.org/TR/2001/REC-SVG-20010904/DTD/svg10.dtd">
<svg version="1.0" xmlns="http://www.w3.org/2000/svg"
 width="275.000000pt" height="183.000000pt" viewBox="0 0 275.000000 183.000000"
 preserveAspectRatio="xMidYMid meet">

<g transform="translate(0.000000,183.000000) scale(0.100000,-0.100000)"
fill="#000000" stroke="none">
<path d="M1341 1425 c-18 -70 -14 -146 9 -175 11 -14 20 -34 20 -45 1 -16 4
-15 18 10 20 35 24 197 5 229 -20 35 -40 27 -52 -19z"/>
<path d="M327 1334 c-4 -4 -7 -15 -7 -23 0 -13 8 -16 39 -13 32 3 40 0 44 -15
4 -17 4 -17 12 1 5 11 4 26 -2 35 -10 17 -73 27 -86 15z"/>
<path d="M1173 1324 c-7 -3 -13 -18 -12 -32 0 -26 1 -26 9 -4 12 28 66 32 74
5 3 -11 4 -7 3 7 -2 20 -8 25 -32 27 -16 1 -36 0 -42 -3z"/>
<path d="M2388 1313 c-14 -3 -18 -14 -17 -41 1 -23 3 -29 6 -14 2 12 9 22 14
22 6 0 8 -4 4 -9 -3 -6 6 -6 25 -1 25 7 30 6 31 -8 0 -9 5 -4 10 13 12 40 -14
54 -73 38z"/>
<path d="M2183 1298 c-17 -8 -23 -22 -28 -72 -4 -33 -5 -75 -3 -91 l3 -30 66
3 66 4 5 -216 c2 -119 8 -219 11 -223 13 -13 20 7 24 74 l5 69 74 -15 74 -15
0 -52 c0 -72 6 -84 44 -84 l31 0 -3 73 c-3 64 0 79 20 108 13 19 31 53 42 76
l19 42 -27 73 c-25 67 -53 113 -90 151 -10 10 -32 14 -68 12 -29 -1 -63 3 -74
8 -15 6 -37 4 -70 -6 -27 -9 -60 -17 -74 -19 -25 -3 -25 -3 -21 70 1 39 1 72
-1 71 -1 0 -13 -5 -25 -11z m378 -388 c-16 -35 -19 -38 -24 -20 -3 12 -3 46 0
77 l6 56 18 -36 c18 -34 18 -37 0 -77z"/>
<path d="M1320 1245 c6 -8 18 -34 25 -57 9 -29 14 -36 14 -20 1 29 -27 92 -41
92 -6 0 -5 -6 2 -15z"/>
<path d="M1206 1240 c-15 -5 -16 -9 -7 -14 7 -5 18 -3 24 3 14 14 6 20 -17 11z"/>
<path d="M340 1230 c0 -5 9 -10 20 -10 11 0 20 5 20 10 0 6 -9 10 -20 10 -11
0 -20 -4 -20 -10z"/>
<path d="M1286 1222 c-11 -18 -83 -51 -92 -42 -5 5 -27 4 -52 -2 -34 -8 -47
-18 -61 -47 -17 -32 -17 -39 -5 -64 9 -17 11 -27 4 -27 -6 0 -13 7 -16 15 -4
8 -10 12 -15 9 -5 -3 0 -18 11 -34 27 -38 25 -49 -3 -22 l-24 22 -11 -38 c-7
-22 -12 -51 -12 -66 0 -33 35 -108 61 -132 17 -16 19 -16 19 -1 0 10 7 17 15
17 12 0 13 -4 6 -18 -6 -11 -6 -24 0 -34 7 -13 47 -410 49 -480 0 -5 19 -8 43
-8 30 0 38 3 27 10 -8 5 -23 7 -32 4 -10 -3 -18 -1 -18 5 0 5 10 11 23 13 17
2 21 9 19 28 -1 14 -5 116 -8 228 -5 146 -4 202 4 202 7 0 14 -10 17 -22 44
-188 86 -379 91 -418 l7 -50 53 0 c30 0 54 5 54 10 0 6 -11 10 -25 10 -18 0
-26 6 -29 23 -58 302 -75 459 -69 633 3 88 9 164 14 170 5 5 3 32 -4 59 -12
47 -29 66 -41 47z m-16 -92 c-13 -8 -12 -10 3 -10 25 0 18 -34 -8 -37 -16 -1
-16 -1 -2 3 21 7 23 24 2 24 -8 0 -15 7 -15 15 0 8 8 15 18 15 14 0 15 -2 2
-10z"/>
<path d="M2410 1210 c0 -5 5 -10 10 -10 6 0 10 5 10 10 0 6 -4 10 -10 10 -5 0
-10 -4 -10 -10z"/>
<path d="M409 1198 c-13 -40 -23 -220 -14 -266 6 -33 7 -33 51 -29 25 2 44 -1
44 -6 0 -6 2 -8 5 -5 3 2 -4 23 -15 46 -21 42 -26 67 -12 58 4 -2 16 2 26 9
15 12 18 24 14 75 -5 65 -19 85 -70 96 -15 4 -25 10 -22 15 3 5 3 9 0 9 -3 0
-6 -1 -7 -2z m55 -107 c17 -31 11 -47 -11 -30 -9 9 -13 8 -13 0 0 -6 -4 -11
-10 -11 -13 0 -13 12 0 44 12 33 16 33 34 -3z"/>
<path d="M1562 1184 c-19 -13 -22 -24 -22 -79 0 -44 -4 -67 -14 -72 -7 -4 -25
-30 -39 -58 -23 -44 -27 -47 -33 -28 -6 20 -6 21 -24 3 -15 -15 -17 -25 -10
-55 12 -52 24 -61 57 -45 16 8 31 16 36 18 4 2 7 -3 7 -12 0 -23 37 -20 43 3
3 11 -1 28 -8 38 -11 15 -11 28 1 73 8 30 19 57 24 58 14 5 12 23 -4 41 -27
31 -29 59 -5 72 19 10 25 9 36 -7 9 -13 13 -14 13 -4 0 11 3 11 16 -2 15 -15
15 -18 -5 -39 -21 -23 -24 -40 -6 -41 11 -1 51 -83 57 -114 3 -20 22 -44 34
-44 3 0 4 18 1 40 -5 41 3 49 33 30 12 -7 12 -13 1 -33 -18 -33 2 -75 25 -56
21 17 44 64 44 88 0 14 -21 35 -67 66 -37 25 -73 45 -79 45 -6 0 -14 23 -16
52 -7 72 -46 98 -96 62z"/>
<path d="M270 1167 c-28 -14 -38 -56 -39 -167 -1 -58 1 -62 12 -41 13 26 37
40 37 21 0 -6 -11 -22 -25 -36 -27 -27 -25 -48 5 -39 10 3 22 0 26 -6 5 -9 2
-10 -9 -6 -10 3 -17 2 -17 -3 0 -16 30 -12 48 6 21 22 31 246 12 269 -15 18
-18 18 -50 2z"/>
<path d="M802 1168 c-5 -7 -15 -32 -21 -54 -6 -23 -18 -48 -27 -55 -8 -7 -27
-35 -40 -61 -14 -27 -29 -46 -34 -43 -5 3 -11 -4 -15 -15 -4 -11 -11 -18 -16
-15 -13 9 -11 -2 6 -36 16 -30 23 -30 58 -1 15 14 17 13 16 -9 0 -13 -6 -49
-12 -80 -12 -58 -10 -174 2 -148 4 8 16 51 26 95 16 74 20 81 39 76 11 -2 29
-14 39 -26 l18 -21 -10 22 c-9 18 -8 22 7 26 9 3 -2 5 -26 6 l-43 1 7 58 c4
31 13 66 20 77 8 11 14 32 14 48 0 22 4 28 15 24 8 -4 17 -1 21 5 4 7 3 8 -4
4 -7 -4 -12 -3 -12 2 0 4 -10 19 -21 31 -17 18 -19 25 -8 31 7 5 16 7 20 4 4
-2 9 6 11 18 4 31 42 31 46 1 2 -13 10 -23 18 -23 11 0 13 6 8 23 -11 36 -24
47 -59 47 -18 0 -37 -6 -43 -12z"/>
<path d="M1904 1155 c-12 -18 -15 -39 -11 -71 6 -53 11 -61 32 -44 11 9 13 16
5 24 -14 14 -13 49 1 40 7 -4 9 0 5 14 -10 31 21 36 51 8 22 -20 23 -26 13
-46 -6 -12 -9 -24 -6 -27 9 -9 34 59 28 76 -19 56 -89 71 -118 26z"/>
<path d="M140 1142 c0 -5 7 -9 15 -9 8 0 12 4 9 9 -3 4 -9 8 -15 8 -5 0 -9 -4
-9 -8z"/>
<path d="M876 1075 c-21 -31 -21 -49 0 -41 15 6 16 1 9 -36 -5 -24 -9 -67 -11
-96 -1 -30 -4 -56 -7 -59 -3 -3 3 -25 14 -50 12 -29 19 -68 19 -109 0 -55 3
-64 18 -64 10 0 24 -6 31 -12 11 -11 12 -3 6 42 -3 30 -9 64 -11 75 -5 19 -4
19 9 2 14 -16 15 -15 19 14 3 18 -1 52 -8 77 -8 24 -18 80 -24 124 -7 55 -15
85 -26 93 -11 8 -15 21 -12 38 7 34 -5 35 -26 2z"/>
<path d="M438 883 c6 -2 18 -2 25 0 6 3 1 5 -13 5 -14 0 -19 -2 -12 -5z"/>
<path d="M2033 863 c-13 -2 -23 -11 -23 -19 0 -8 -4 -14 -10 -14 -5 0 -10 5
-10 10 0 6 -6 10 -12 10 -25 -1 -50 -73 -56 -159 -4 -74 -3 -86 13 -98 29 -20
64 -16 74 9 l8 22 5 -22 c7 -26 44 -30 74 -8 16 12 19 26 18 93 0 64 -5 87
-27 131 -15 28 -28 51 -30 51 -1 -1 -12 -4 -24 -6z"/>
<path d="M236 612 c-15 -107 -32 -206 -37 -219 -5 -14 -9 -39 -9 -58 0 -26 5
-35 21 -40 25 -8 38 7 40 45 2 52 94 425 104 420 10 -5 10 -180 -1 -363 -6
-87 -4 -97 10 -91 9 3 22 1 30 -5 11 -9 15 -7 19 10 8 30 41 478 36 483 -2 2
-45 6 -94 9 l-91 5 -28 -196z"/>
<path d="M812 670 c0 -19 2 -27 5 -17 2 9 2 25 0 35 -3 9 -5 1 -5 -18z"/>
<path d="M799 328 c-1 -2 -2 -18 -4 -35 l-3 -33 54 0 c30 0 54 5 54 10 0 6 -4
10 -10 10 -5 0 -12 11 -16 25 -8 31 -30 27 -27 -4 4 -29 -13 -26 -21 4 -5 20
-22 34 -27 23z"/>
<path d="M1500 326 c0 -2 7 -7 16 -10 8 -3 12 -2 9 4 -6 10 -25 14 -25 6z"/>
<path d="M1660 322 c0 -5 7 -9 15 -9 8 0 12 4 9 9 -3 4 -9 8 -15 8 -5 0 -9 -4
-9 -8z"/>
<path d="M2293 293 c-35 -24 -28 -33 27 -33 51 0 64 12 38 38 -16 16 -38 14
-65 -5z"/>
<path d="M2488 303 c-10 -2 -18 -13 -18 -24 0 -16 7 -19 50 -19 55 0 62 10 25
34 -25 16 -28 17 -57 9z"/>
<path d="M1503 289 c-33 -12 -28 -29 7 -29 19 0 30 5 30 14 0 21 -11 25 -37
15z"/>
<path d="M1668 293 c-28 -7 -22 -33 7 -33 15 0 25 6 25 14 0 18 -10 24 -32 19z"/>
</g>
</svg>
